# AST/ASF file generated using VICON BodyLanguage
# -----------------------------------------------
:version 1.10
:name VICON
:units
  mass 1.0
  length 0.45
  angle deg
:documentation
   .ast/.asf automatically generated from VICON data using
   VICON BodyBuilder and BodyLanguage model FoxedUp or BRILLIANT.MOD
:root
   order TX TY TZ RX RY RZ
   axis XYZ
   position 0 0 0  
   orientation 0 0 0 
:bonedata
  begin
     id 1 
     name lhipjoint
     direction 0.645893 -0.654526 0.392961 
     length 2.38111 
     axis 0 0 0  XYZ
  end
  begin
     id 2 
     name lfemur
     direction 0.34202 -0.939693 0  
     length 6.6822  
     axis 0 0 20  XYZ
    dof rx ry rz
    limits (-160.0 20.0)
           (-70.0 70.0)
           (-60.0 70.0)
  end
  begin
     id 3 
     name ltibia
     direction 0.34202 -0.939693 0   
     length 6.93904   
     axis 0 0 20   XYZ
    dof rx
    limits (-10.0 170.0)
  end
  begin
     id 4 
     name lfoot
     direction 0.0694967 -0.190941 0.979138   
     length 2.13616   
     axis -90 7.62852e-016 20   XYZ
    dof rx rz
    limits (-45.0 90.0)
           (-70.0 20.0)
  end
  begin
     id 5 
     name ltoes
     direction 1.535e-011 -4.2202e-011 1   
     length 1.07536   
     axis -90 7.62852e-016 20   XYZ
    dof rx
    limits (-90.0 20.0)
  end
  begin
     id 6 
     name rhipjoint
     direction -0.700219 -0.612087 0.367481   
     length 2.54621  
     axis 0 0 0  XYZ 
  end
  begin
     id 7 
     name rfemur
     direction -0.34202 -0.939693 0   
     length 6.55353   
     axis 0 0 -20   XYZ
    dof rx ry rz
    limits (-160.0 20.0)
           (-70.0 70.0)
           (-70.0 60.0)
  end
  begin
     id 8 
     name rtibia
     direction -0.34202 -0.939693 0   
     length 6.8736   
     axis 0 0 -20   XYZ
    dof rx
    limits (-10.0 170.0)
 end
 begin
     id 9 
     name rfoot
     direction -0.0679995 -0.186827 0.980037   
     length 2.1218  
     axis -90 -7.62852e-016 -20   XYZ
    dof rx rz
    limits (-45.0 90.0)
           (-20.0 70.0)
  end
  begin
     id 10 
     name rtoes
     direction -1.53589e-011 -4.21772e-011 1   
     length 1.06864   
     axis -90 -7.62852e-016 -20   XYZ
    dof rx
    limits (-90.0 20.0)
  end
  begin
     id 11 
     name lowerback
     direction -0.0416607 0.996347 -0.0745409   
     length 2.12205   
     axis 0 0 0   XYZ
    dof rx ry rz
    limits (-20.0 45.0)
           (-30.0 30.0)
           (-30.0 30.0)
  end
  begin
     id 12 
     name upperback
     direction -0.000153993 0.999276 -0.0380568   
     length 2.12759   
     axis 0 0 0   XYZ
    dof rx ry rz
    limits (-20.0 45.0)
           (-30.0 30.0)
           (-30.0 30.0)
  end
  begin
     id 13 
     name thorax
     direction 0.0187671 0.999821 -0.00241421   
     length 2.13704   
     axis 0 0 0   XYZ
    dof rx ry rz
    limits (-20.0 45.0)
           (-30.0 30.0)
           (-30.0 30.0)
  end
  begin
     id 14 
     name lowerneck
     direction 0.0268157 0.964865 0.261374   
     length 1.65253   
     axis 0 0 0   XYZ
    dof rx ry rz
    limits (-20.0 45.0)
           (-30.0 30.0)
           (-30.0 30.0)
  end
  begin
     id 15 
     name upperneck
     direction 0.00263774 0.939908 -0.341418   
     length 1.72375   
     axis 0 0 0   XYZ
    dof rx ry rz
    limits (-20.0 45.0)
           (-30.0 30.0)
           (-30.0 30.0)
  end
  begin
     id 16
     name head
     direction -0.00526001 0.989001 -0.147818  
     length 1.74878  
     axis 0 0 0   XYZ
    dof rx ry rz
    limits (-20.0 45.0)
           (-30.0 30.0)
           (-30.0 30.0)
  end
  begin
     id 17 
     name lclavicle
     direction 0.881214 0.461162 -0.103884  
     length 3.25108  
     axis 0 0 0   XYZ
    dof ry rz
    limits (-20.0 10.0)
           (0.0 20.0)
  end
  begin
     id 18 
     name lhumerus
     direction 1 -4.4899e-011 3.38092e-027   
     length 4.87408   
     axis 180 -30 -90   XYZ
    dof rx ry rz
    limits (-60.0 90.0)
           (-90.0 90.0)
           (-90.0 90.0)
  end
  begin
     id 19
     name lradius
     direction 1 -4.48931e-011 9.96288e-027   
     length 2.76729   
     axis 180 -30 -90   XYZ
    dof rx
    limits (-10.0 170.0)
  end
  begin
     id 20
     name lwrist
     direction 1 -4.4896e-011 1.50617e-026   
     length 1.38364   
     axis -9.31234e-015 90 90   XYZ
    dof ry
    limits (-180.0 0.0)
 end
  begin
     id 21 
     name lhand
     direction 1 -4.49038e-011 3.01286e-026   
     length 0.98922   
     axis -1.92217e-014 90 90   XYZ
    dof rx rz
    limits (-90.0 90.0)
           (-45.0 45.0)
  end
  begin
     id 22 
     name lfingers
     direction 1 -4.49051e-011 6.02588e-026   
     length 0.797535   
     axis -3.84436e-014 90 90   XYZ
    dof rx
    limits (0.0 90.0)
  end
  begin
     id 23
     name lthumb
     direction 0.707107 -6.34901e-011 0.707107   
     length 1.14511   
     axis -90 45 2.19363e-014   XYZ
    dof rx rz
    limits (-45.0 45.0)
           (-45.0 45.0)
  end
  begin
     id 24 
     name rclavicle
     direction -0.893894 0.441652 -0.0767889   
     length 3.29361  
     axis 0 0 0   XYZ 
    dof ry rz
    limits (-10.0 20.0)
           (-20.0 0.0)
  end
  begin
     id 25 
     name rhumerus
     direction -1 -4.48945e-011 8.0491e-028  
     length 4.71404   
     axis 180 30 90   XYZ
    dof rx ry rz
    limits (-90.0 60.0)
           (-90.0 90.0)
           (-90.0 90.0)
  end
  begin
     id 26 
     name rradius
     direction -1 -4.48986e-011 9.27795e-027   
     length 2.83468   
     axis 180 30 90   XYZ
    dof rx
    limits (-10.0 170.0)
  end
  begin
     id 27 
     name rwrist
     direction -1 -4.49029e-011 1.5064e-026   
     length 1.41734   
     axis -9.31234e-015 -90 -90   XYZ
    dof ry
    limits (-180.0 0.0)
  end
  begin
     id 28
     name rhand
     direction -1 -4.48857e-011 3.01165e-026   
     length 0.868195   
     axis -1.92217e-014 -90 -90   XYZ
    dof rx rz
    limits (-90.0 90.0)
           (-45.0 45.0)
  end
  begin
     id 29
     name rfingers
     direction -1 -4.49048e-011 6.02585e-026   
     length 0.699961   
     axis -3.84436e-014 -90 -90   XYZ
    dof rx
    limits (0.0 90.0)
  end
  begin
     id 30
     name rthumb
     direction -0.707107 -6.34854e-011 0.707107   
     length 1.00501   
     axis -90 -45 -2.19363e-014   XYZ
    dof rx rz
    limits (-45.0 45.0)
           (-45.0 45.0)
  end
:hierarchy
  begin
    root lhipjoint rhipjoint lowerback
    lhipjoint lfemur
    lfemur ltibia
    ltibia lfoot
    lfoot ltoes
    rhipjoint rfemur
    rfemur rtibia
    rtibia rfoot
    rfoot rtoes
    lowerback upperback
    upperback thorax
    thorax lowerneck lclavicle rclavicle
    lowerneck upperneck
    upperneck head
    lclavicle lhumerus
    lhumerus lradius
    lradius lwrist
    lwrist lhand lthumb
    lhand lfingers
    rclavicle rhumerus
    rhumerus rradius
    rradius rwrist
    rwrist rhand rthumb
    rhand rfingers
  end

#!OML:ASF H:\ManfredObstacles\Project 1\Capture day 2\Session 1\male.ASF
:FULLY-SPECIFIED
:DEGREES
33
root 1.10034 15.4386 23.6365 -170.326 4.57557 183.725
lowerback 1.23893 4.63642 1.15457
upperback 1.21384 6.22602 -1.04324
thorax 0.791674 3.14063 -1.73003
lowerneck -32.6726 -0.566663 -1.15115
upperneck 41.2001 -4.09799 1.54495
head 23.7347 -2.24391 -0.495307
rclavicle -2.52457e-014 1.70955e-014
rhumerus -35.7141 17.5614 -98.8516
rradius 80.0247
rwrist 13.1807
rhand -12.3506 -0.931007
rfingers 7.12502
rthumb 13.7191 -30.4588
lclavicle -2.52457e-014 1.70955e-014
lhumerus -65.3666 -16.2588 87.0374
lradius 87.7638
lwrist -17.9892
lhand -15.3531 6.76839
lfingers 7.12502
lthumb 10.8242 36.4695
rfemur -5.50948 5.85796 29.6473
rtibia 37.0434
rfoot -5.39336 -12.9283
rtoes -32.8748
lfemur -47.1402 -1.87515 -15.0275
ltibia 70.495
lfoot 6.02799 26.2205
ltoes -3.66659
34
root 1.10293 15.5065 23.3576 -169.928 4.38814 183.644
lowerback 0.916896 4.83454 0.991338
upperback 1.19361 6.48476 -1.03557
thorax 0.94181 3.2681 -1.60327
lowerneck -32.9498 -0.864383 -1.63972
upperneck 41.2041 -4.39299 1.85299
head 23.8905 -2.36956 -0.317841
rclavicle -1.78906e-015 2.14687e-014
rhumerus -34.9565 18.533 -98.9582
rradius 80.5937
rwrist 12.7976
rhand -12.2511 -0.881068
rfingers 7.12502
rthumb 13.815 -30.4023
lclavicle -1.78906e-015 2.14687e-014
lhumerus -65.901 -16.1396 87.0091
lradius 88.1273
lwrist -17.9189
lhand -15.3381 6.56896
lfingers 7.12502
lthumb 10.8387 36.2693
rfemur -4.44724 5.69423 29.4946
rtibia 35.6837
rfoot -3.65858 -12.086
rtoes -33.1339
lfemur -47.7139 -2.26722 -14.9591
ltibia 67.8718
lfoot 6.09544 25.691
ltoes -3.73819
35
root 1.10675 15.572 23.0742 -169.547 4.17431 183.51
lowerback 0.543014 4.98725 0.733261
upperback 1.19698 6.68426 -1.00869
thorax 1.12839 3.36497 -1.39787
lowerneck -33.2165 -1.14067 -2.14488
upperneck 41.1939 -4.62995 2.15083
head 24.0343 -2.47983 -0.124796
rclavicle -2.33572e-014 7.95139e-016
rhumerus -34.2418 19.552 -99.0003
rradius 81.1118
rwrist 12.3437
rhand -12.1406 -0.83611
rfingers 7.12502
rthumb 13.9215 -30.3501
lclavicle -2.33572e-014 7.95139e-016
lhumerus -66.4168 -15.9093 86.9765
lradius 88.4601
lwrist -17.899
lhand -15.3489 6.37905
lfingers 7.12502
lthumb 10.8282 36.0799
rfemur -3.35877 5.52014 29.3052
rtibia 34.2963
rfoot -1.79767 -11.2942
rtoes -33.3253
lfemur -48.168 -2.6416 -14.9732
ltibia 65.2047
lfoot 6.14115 24.8755
ltoes -3.92222
36
root 1.11188 15.634 22.787 -169.185 3.93145 183.327
lowerback 0.212382 5.26073 0.543528
upperback 1.11531 7.04909 -1.18971
thorax 1.24051 3.54582 -1.44509
lowerneck -33.3973 -1.49817 -2.33517
upperneck 41.1516 -5.19968 2.42816
head 24.1234 -2.65168 -0.100986
rclavicle 2.48481e-015 -1.39149e-014
rhumerus -33.6624 19.8913 -99.1734
rradius 81.6304
rwrist 11.8732
rhand -12.0176 -0.811495
rfingers 7.12502
rthumb 14.04 -30.3173
lclavicle 2.48481e-015 -1.39149e-014
lhumerus -66.9863 -16.2891 86.8234
lradius 88.78
lwrist -17.8489
lhand -15.3547 6.24543
lfingers 7.12502
lthumb 10.8226 35.9466
rfemur -2.25872 5.32785 29.0864
rtibia 32.9104
rfoot 0.157028 -10.5463
rtoes -33.4234
lfemur -48.5177 -2.99223 -15.0712
ltibia 62.5352
lfoot 6.11027 23.805
ltoes -4.25626
37
root 1.11815 15.6917 22.4965 -168.831 3.66906 183.099
lowerback -0.127392 5.57884 0.338402
upperback 0.992514 7.47778 -1.46361
thorax 1.32785 3.75949 -1.57532
lowerneck -33.4839 -1.86307 -2.32563
upperneck 41.0738 -5.88598 2.654
head 24.1407 -2.83679 -0.178119
rclavicle 6.53008e-014 -2.98177e-014
rhumerus -33.1826 19.898 -99.3771
rradius 82.1365
rwrist 11.3059
rhand -11.8289 -0.79104
rfingers 7.12502
rthumb 14.2219 -30.2841
lclavicle 6.53008e-014 -2.98177e-014
lhumerus -67.5774 -16.9367 86.6163
lradius 89.0896
lwrist -17.7646
lhand -15.3565 6.13549
lfingers 7.12502
lthumb 10.8209 35.8367
rfemur -1.17526 5.12881 28.8402
rtibia 31.5648
rfoot 2.16836 -9.86694
rtoes -33.3786
lfemur -48.7762 -3.29958 -15.2587
ltibia 59.9031
lfoot 5.96646 22.5308
ltoes -4.75839
38
root 1.12514 15.7435 22.2039 -168.487 3.38962 182.853
lowerback -0.444562 5.9234 0.145637
upperback 0.824322 7.94692 -1.8163
thorax 1.37121 3.99513 -1.79299
lowerneck -33.5012 -2.25977 -2.24097
upperneck 40.9757 -6.69502 2.90764
head 24.1219 -3.05003 -0.29086
rclavicle 8.57756e-014 -2.22639e-014
rhumerus -32.8028 19.6574 -99.6324
rradius 82.6185
rwrist 10.6765
rhand -11.6383 -0.815721
rfingers 7.12502
rthumb 14.4055 -30.2958
lclavicle 8.57756e-014 -2.22639e-014
lhumerus -68.19 -17.7891 86.3522
lradius 89.4119
lwrist -17.6362
lhand -15.3405 6.07305
lfingers 7.12502
lthumb 10.8363 35.7735
rfemur -0.125915 4.91693 28.5903
rtibia 30.3045
rfoot 4.19092 -9.26547
rtoes -33.1971
lfemur -48.9565 -3.56276 -15.5102
ltibia 57.3591
lfoot 5.6931 21.1359
ltoes -5.46506
39
root 1.13194 15.7895 21.9087 -168.152 3.11109 182.598
lowerback -0.764948 6.25439 -0.049391
upperback 0.646837 8.40345 -2.1893
thorax 1.41164 4.22617 -2.0272
lowerneck -33.4951 -2.66442 -2.18726
upperneck 40.8701 -7.52163 3.20041
head 24.0991 -3.27208 -0.382125
rclavicle 3.39922e-014 2.26615e-014
rhumerus -32.4946 19.3489 -99.8889
rradius 83.0677
rwrist 10.0478
rhand -11.4851 -0.882153
rfingers 7.12502
rthumb 14.5532 -30.3516
lclavicle 3.39922e-014 2.26615e-014
lhumerus -68.7855 -18.6528 86.0561
lradius 89.7407
lwrist -17.4652
lhand -15.3192 6.01902
lfingers 7.12502
lthumb 10.8569 35.7184
rfemur 0.867338 4.70006 28.34
rtibia 29.1754
rfoot 6.15904 -8.75977
rtoes -32.9049
lfemur -49.0515 -3.76425 -15.8256
ltibia 54.95
lfoot 5.37381 19.6984
ltoes -6.29751
40
root 1.13823 15.8272 21.6127 -167.821 2.82102 182.348
lowerback -1.03194 6.663 -0.151
upperback 0.381804 8.97101 -2.70467
thorax 1.37685 4.51764 -2.461
lowerneck -33.3974 -3.12515 -2.00836
upperneck 40.7873 -8.59107 3.55801
head 24.0821 -3.5554 -0.536147
rclavicle -4.57205e-015 4.01545e-014
rhumerus -32.3129 18.573 -100.249
rradius 83.4966
rwrist 9.53849
rhand -11.3558 -0.97099
rfingers 7.12502
rthumb 14.6777 -30.4315
lclavicle -4.57205e-015 4.01545e-014
lhumerus -69.4161 -19.9308 85.6816
lradius 90.0812
lwrist -17.2102
lhand -15.2819 5.96317
lfingers 7.12502
lthumb 10.8928 35.6606
rfemur 1.78011 4.46327 28.1047
rtibia 28.2268
rfoot 8.08209 -8.35655
rtoes -32.4089
lfemur -49.09 -3.92442 -16.1792
ltibia 52.7312
lfoot 5.11171 18.266
ltoes -7.18304
41
root 1.14276 15.8556 21.3155 -167.513 2.5576 182.123
lowerback -1.37511 6.91109 -0.351521
upperback 0.228458 9.32567 -3.02046
thorax 1.4471 4.7 -2.62691
lowerneck -33.4781 -3.497 -2.1109
upperneck 40.7409 -9.31692 3.90369
head 24.1747 -3.76455 -0.546774
rclavicle 8.24956e-015 1.94809e-014
rhumerus -32.0896 18.3884 -100.44
rradius 83.8517
rwrist 9.04929
rhand -11.2828 -1.07891
rfingers 7.12502
rthumb 14.748 -30.5342
lclavicle 8.24956e-015 1.94809e-014
lhumerus -69.9258 -20.5323 85.3672
lradius 90.3993
lwrist -17.0472
lhand -15.2608 5.89292
lfingers 7.12502
lthumb 10.9132 35.5893
rfemur 2.62197 4.2153 27.8873
rtibia 27.505
rfoot 9.94036 -8.0315
rtoes -31.685
lfemur -49.0468 -4.0387 -16.5482
ltibia 50.7513
lfoot 5.02516 16.9207
ltoes -8.01556
42
root 1.14529 15.8745 21.0179 -167.229 2.30625 181.932
lowerback -1.72068 7.13538 -0.518323
upperback 0.0838935 9.65117 -3.31473
thorax 1.52941 4.86858 -2.78652
lowerneck -33.5484 -3.83933 -2.20986
upperneck 40.705 -10.002 4.24016
head 24.2774 -3.96208 -0.553097
rclavicle 7.15625e-015 -6.36111e-015
rhumerus -31.9178 18.1726 -100.618
rradius 84.1538
rwrist 8.72226
rhand -11.2562 -1.16622
rfingers 7.12502
rthumb 14.7737 -30.6197
lclavicle 7.15625e-015 -6.36111e-015
lhumerus -70.3898 -21.0532 85.0501
lradius 90.7074
lwrist -16.9213
lhand -15.2495 5.85213
lfingers 7.12502
lthumb 10.9241 35.548
rfemur 3.36315 3.92881 27.6934
rtibia 27.0483
rfoot 11.727 -7.80473
rtoes -30.6356
lfemur -48.9354 -4.12833 -16.9122
ltibia 49.0548
lfoot 5.15681 15.7146
ltoes -8.68923
43
root 1.14561 15.8836 20.7204 -166.977 2.0734 181.785
lowerback -2.06707 7.32301 -0.657237
upperback -0.0414593 9.92736 -3.55473
thorax 1.62574 5.01196 -2.90434
lowerneck -33.5927 -4.14999 -2.37898
upperneck 40.7002 -10.6232 4.59614
head 24.4153 -4.15087 -0.518977
rclavicle 5.88403e-014 -5.56597e-015
rhumerus -31.7968 17.9975 -100.765
rradius 84.3926
rwrist 8.58248
rhand -11.2764 -1.22336
rfingers 7.12502
rthumb 14.7542 -30.6782
lclavicle 5.88403e-014 -5.56597e-015
lhumerus -70.8119 -21.4163 84.7603
lradius 91.0047
lwrist -16.8314
lhand -15.2599 5.82634
lfingers 7.12502
lthumb 10.9141 35.5227
rfemur 3.99162 3.61409 27.5305
rtibia 26.8815
rfoot 13.4477 -7.69061
rtoes -29.3219
lfemur -48.7577 -4.19754 -17.2537
ltibia 47.6779
lfoot 5.51393 14.718
ltoes -9.15645
44
root 1.14377 15.8821 20.424 -166.768 1.84993 181.702
lowerback -2.40401 7.45434 -0.765319
upperback -0.12667 10.1241 -3.70499
thorax 1.74378 5.11355 -2.94801
lowerneck -33.6374 -4.42343 -2.6493
upperneck 40.6984 -11.1234 4.95842
head 24.5693 -4.31558 -0.426549
rclavicle -1.55052e-014 4.77083e-015
rhumerus -31.6943 17.9291 -100.855
rradius 84.5561
rwrist 8.59203
rhand -11.3022 -1.24038
rfingers 7.12502
rthumb 14.7293 -30.6971
lclavicle -1.55052e-014 4.77083e-015
lhumerus -71.1532 -21.5354 84.5058
lradius 91.2635
lwrist -16.8051
lhand -15.2812 5.76829
lfingers 7.12502
lthumb 10.8935 35.4657
rfemur 4.49475 3.27268 27.4189
rtibia 27.0273
rfoot 15.1075 -7.65861
rtoes -27.7563
lfemur -48.5198 -4.2567 -17.5495
ltibia 46.6509
lfoot 6.04199 14.0109
ltoes -9.39621
45
root 1.13997 15.8694 20.1289 -166.602 1.64109 181.686
lowerback -2.72208 7.5497 -0.82524
upperback -0.183551 10.2668 -3.78173
thorax 1.87267 5.1861 -2.94486
lowerneck -33.7276 -4.64352 -2.92588
upperneck 40.716 -11.5034 5.26643
head 24.7493 -4.44565 -0.327799
rclavicle 1.28614e-013 -6.04305e-014
rhumerus -31.6153 17.9002 -100.901
rradius 84.6336
rwrist 8.69279
rhand -11.3081 -1.21414
rfingers 7.12502
rthumb 14.7237 -30.6713
lclavicle 1.28614e-013 -6.04305e-014
lhumerus -71.4236 -21.4833 84.2919
lradius 91.4822
lwrist -16.8472
lhand -15.3228 5.69664
lfingers 7.12502
lthumb 10.8534 35.3962
rfemur 4.8562 2.92189 27.3635
rtibia 27.4982
rfoot 16.7098 -7.66783
rtoes -26.1265
lfemur -48.2242 -4.2631 -17.8184
ltibia 45.9965
lfoot 6.6386 13.6948
ltoes -9.75514
